<?xml version="1.0" standalone="no"?><!DOCTYPE svg PUBLIC "-//W3C//DTD SVG 1.1//EN" "http://www.w3.org/Graphics/SVG/1.1/DTD/svg11.dtd"><svg t="1713681435337" class="icon" viewBox="0 0 1024 1024" version="1.1" xmlns="http://www.w3.org/2000/svg" p-id="9772" xmlns:xlink="http://www.w3.org/1999/xlink" width="200" height="200"><path d="M676.39 613.156c0.012 0.186 0.034 0.366 0.042 0.552 1.372 25.582-6.852 44.972-18.498 62.686-23.374 35.542-123.982 120.05-145.78 120.05-21.354 0-122.87-84.82-146.088-120.05-11.618-17.634-19.866-37.104-18.502-62.686 0.01-0.186 0.03-0.37 0.042-0.552l-317.06-253.74v614.396h962.9V359.416l-317.056 253.74z" fill="#FECC85" p-id="9773"></path><path d="M591.626 531.026c-44.616 0-79.62 49.748-79.62 49.748s-33.018-49.748-79.642-49.748c-45.346 0-82.378 37.402-84.802 82.688-1.366 25.582 6.882 45.052 18.502 62.686 23.218 35.23 124.734 120.05 146.088 120.05 21.798 0 122.406-84.508 145.78-120.05 11.642-17.714 19.87-37.104 18.498-62.686-2.422-45.29-39.452-82.688-84.804-82.688" fill="#FF5E8A" p-id="9774"></path><path d="M108.462 50.192v371.572l239.146 191.388c2.698-45.034 39.596-82.132 84.758-82.132 46.62 0 79.642 49.744 79.642 49.744s35.004-49.744 79.62-49.744c45.166 0 82.068 37.1 84.762 82.134l239.146-191.39V50.192H108.462z" fill="#BDDEE5" p-id="9775"></path><path d="M1006.682 331.878a30.576 30.576 0 0 0-32.322 3.684l-28.272 22.626V50.192c0-16.872-13.678-30.55-30.55-30.55H108.46c-16.872 0-30.55 13.678-30.55 30.55v307.994L49.638 335.56A30.548 30.548 0 0 0 0 359.412v614.394c0 16.872 13.678 30.55 30.55 30.55h962.9c16.872 0 30.55-13.678 30.55-30.55V359.412a30.55 30.55 0 0 0-17.318-27.534zM962.9 901.774L689.658 683.1c0.208-0.364 0.412-0.734 0.618-1.102 0.418-0.746 0.83-1.51 1.246-2.282 0.268-0.5 0.538-0.996 0.804-1.506a161 161 0 0 0 1.302-2.566c0.236-0.47 0.47-0.928 0.702-1.412 0.642-1.322 1.274-2.676 1.892-4.066 0.164-0.37 0.32-0.76 0.482-1.134 0.456-1.05 0.908-2.108 1.344-3.192 0.25-0.624 0.492-1.268 0.736-1.904 0.336-0.87 0.67-1.744 0.99-2.64 0.26-0.718 0.508-1.452 0.758-2.184a134.188 134.188 0 0 0 1.568-4.94 135 135 0 0 0 0.734-2.624c0.224-0.824 0.45-1.646 0.656-2.486 0.23-0.922 0.434-1.866 0.644-2.808 0.186-0.83 0.382-1.65 0.552-2.5 0.342-1.692 0.654-3.416 0.928-5.172 0.132-0.834 0.23-1.698 0.346-2.548 0.144-1.05 0.29-2.096 0.406-3.168 0.1-0.922 0.174-1.866 0.256-2.804 0.062-0.714 0.144-1.408 0.196-2.132l227.81-182.314c0.01-0.006 0.016-0.016 0.024-0.022l28.246-22.608v478.788zM624.95 669.212c-4.558 5.34-9.856 11.014-15.626 16.828-17.544 17.502-40.858 37.754-61.144 53.616-14.932 11.594-28.06 20.698-35.958 24.792-8.872-4.622-24.282-15.474-41.46-29.066-17.282-13.756-36.108-30.086-51.464-44.928-7.588-7.394-14.52-14.63-20.28-21.336-0.346-0.4-0.718-0.76-1.078-1.14-2.56-3.064-4.714-5.888-6.364-8.39a124.036 124.036 0 0 1-3.59-5.774c-0.486-0.834-0.882-1.638-1.332-2.46-0.566-1.032-1.168-2.08-1.672-3.094-0.572-1.152-1.044-2.282-1.542-3.416-0.29-0.66-0.626-1.328-0.892-1.986a65.144 65.144 0 0 1-1.548-4.348c-0.104-0.32-0.244-0.648-0.342-0.968a60.426 60.426 0 0 1-1.298-5.008c-0.022-0.1-0.054-0.202-0.076-0.302a59.476 59.476 0 0 1-0.858-5.252l-0.022-0.132a63.412 63.412 0 0 1-0.348-4.782c-0.01-0.26-0.046-0.51-0.052-0.772-0.034-1.168 0.012-2.374 0.036-3.572 0.016-0.77-0.006-1.522 0.034-2.304 0.006-0.07 0.01-0.128 0.012-0.198 0.024-0.436 0.098-0.862 0.132-1.298 0.116-1.464 0.248-2.924 0.474-4.356 0.03-0.19 0.08-0.372 0.114-0.562 4.152-24.856 24.348-44.616 48.334-47.154 1.726-0.18 3.47-0.274 5.23-0.274 3.046 0 6.074 0.41 9.048 1.142 20.836 5.138 39.23 26.242 45.138 34.946a30.546 30.546 0 0 0 25.036 13.652h0.004c0.12 0 0.232-0.018 0.352-0.018 9.55-0.04 18.482-4.438 24.266-11.97 0.254-0.332 0.54-0.632 0.782-0.978 4.442-6.312 21.972-26.646 41.194-34.048 4.436-1.708 8.964-2.728 13.44-2.728 1.76 0 3.508 0.094 5.23 0.278 24.018 2.542 44.242 22.348 48.354 47.248 0.024 0.156 0.068 0.306 0.092 0.462 0.236 1.498 0.378 3.024 0.494 4.556 0.024 0.332 0.082 0.66 0.1 0.996v0.016l0.024 0.314c0.058 1.124 0.042 2.212 0.048 3.312 0.006 0.804 0.048 1.622 0.028 2.414-0.028 1.058-0.134 2.09-0.214 3.128-0.062 0.794-0.082 1.6-0.172 2.388-0.116 1.012-0.314 2.008-0.482 3.01-0.132 0.798-0.224 1.598-0.392 2.392-0.204 0.984-0.498 1.962-0.754 2.942-0.21 0.8-0.376 1.6-0.62 2.402-0.302 0.986-0.696 1.982-1.054 2.972-0.288 0.794-0.526 1.586-0.85 2.386-0.406 1.006-0.904 2.026-1.366 3.04-0.364 0.8-0.682 1.592-1.082 2.398-0.566 1.142-1.234 2.312-1.876 3.476-0.388 0.706-0.72 1.394-1.136 2.108-1.1 1.894-2.3 3.824-3.598 5.802-1.68 2.558-3.874 5.438-6.486 8.57-0.318 0.342-0.656 0.666-0.968 1.028zM139.01 80.742h745.978v326.344l-192.47 154.034c-14.814-27.15-39.756-47.606-69.486-56.188l-0.638-0.18c-2.2-0.62-4.424-1.18-6.676-1.672-0.236-0.052-0.464-0.11-0.7-0.158a111.73 111.73 0 0 0-7.21-1.28c-0.354-0.052-0.714-0.086-1.072-0.134a113.808 113.808 0 0 0-6.054-0.642c-0.618-0.048-1.234-0.1-1.854-0.14a114.6 114.6 0 0 0-7.204-0.254c-31.042 0-57.212 15.702-75.664 31.466a165.032 165.032 0 0 0-3.586 3.15 163.926 163.926 0 0 0-7.29-6.318c-17.99-14.676-42.758-28.298-72.722-28.298a114.654 114.654 0 0 0-9.056 0.394 112.058 112.058 0 0 0-6.062 0.642c-0.354 0.048-0.708 0.082-1.064 0.132-2.432 0.352-4.84 0.78-7.22 1.284-0.226 0.048-0.452 0.104-0.678 0.152a109.904 109.904 0 0 0-6.696 1.678l-0.624 0.174c-29.732 8.582-54.676 29.038-69.486 56.192l-192.47-154.034 0.004-326.344zM89.348 445.598c0.01 0.006 0.016 0.016 0.024 0.022l227.8 182.308c0.064 0.904 0.162 1.782 0.244 2.67 0.064 0.7 0.116 1.408 0.192 2.098 0.168 1.554 0.37 3.08 0.59 4.588 0.054 0.382 0.098 0.78 0.156 1.16 0.294 1.876 0.626 3.712 0.99 5.514 0.106 0.526 0.232 1.032 0.346 1.554 0.274 1.274 0.56 2.538 0.868 3.78 0.162 0.648 0.336 1.284 0.508 1.922 0.29 1.084 0.586 2.156 0.898 3.214a129.198 129.198 0 0 0 1.588 4.97c0.208 0.608 0.412 1.216 0.63 1.812 0.372 1.042 0.76 2.06 1.152 3.07 0.196 0.508 0.388 1.02 0.586 1.522 0.534 1.328 1.082 2.628 1.644 3.898 0.068 0.15 0.128 0.308 0.196 0.458 0.636 1.43 1.286 2.816 1.942 4.174 0.196 0.404 0.394 0.788 0.592 1.186 0.468 0.944 0.938 1.876 1.414 2.786 0.248 0.47 0.494 0.926 0.742 1.386 0.436 0.81 0.87 1.61 1.31 2.392 0.192 0.342 0.384 0.69 0.578 1.026L61.1 901.774V422.99l28.248 22.608z m17.702 497.66l265.888-212.788c0.26 0.256 0.538 0.522 0.798 0.78 1.414 1.396 2.844 2.79 4.29 4.186 0.624 0.602 1.238 1.2 1.87 1.806 1.46 1.4 2.932 2.792 4.418 4.186 0.666 0.626 1.31 1.244 1.986 1.872 1.962 1.83 3.938 3.65 5.92 5.46 1.128 1.03 2.28 2.06 3.428 3.092 0.992 0.892 1.98 1.784 2.972 2.668a782.084 782.084 0 0 0 6.878 6.052c0.996 0.864 1.986 1.73 2.988 2.594 2.202 1.9 4.39 3.766 6.546 5.584l0.168 0.14c1.732 1.458 3.45 2.894 5.136 4.29 0.662 0.55 1.296 1.06 1.95 1.598l0.956 0.782c11.848 9.714 22.112 17.6 31.018 23.992l0.37 0.266c0.974 0.696 1.942 1.39 2.884 2.05 35.558 25.116 47.598 25.136 54.642 25.136 5.324 0 14.454-0.006 36.342-13.058 0.7-0.416 1.436-0.868 2.162-1.308 0.254-0.156 0.492-0.296 0.748-0.452 12.346-7.588 28.446-19.088 49.552-36.45l1.21-0.996c0.604-0.502 1.186-0.972 1.8-1.478 1.586-1.316 3.202-2.674 4.826-4.044l0.526-0.44a792.62 792.62 0 0 0 6.346-5.432c1.072-0.926 2.13-1.852 3.192-2.78a727.362 727.362 0 0 0 6.734-5.952c0.96-0.858 1.916-1.724 2.874-2.59 1.158-1.048 2.322-2.092 3.462-3.138 1.988-1.82 3.972-3.656 5.942-5.502 0.584-0.546 1.148-1.088 1.726-1.634 1.574-1.484 3.138-2.97 4.684-4.46l1.632-1.586c1.534-1.488 3.046-2.972 4.542-4.458 0.23-0.226 0.476-0.464 0.702-0.69l265.79 212.712H107.05v-0.01z" fill="" p-id="9776"></path><path d="M282.702 256.998h374.126c16.872 0 30.55-13.678 30.55-30.55s-13.678-30.55-30.55-30.55H282.702c-16.872 0-30.55 13.678-30.55 30.55s13.678 30.55 30.55 30.55zM713.082 238.116c0.764 1.864 1.71 3.636 2.81 5.286 1.13 1.68 2.382 3.238 3.818 4.644a30.73 30.73 0 0 0 21.6 8.952c1.986 0 3.972-0.214 5.958-0.61 1.956-0.366 3.88-0.978 5.712-1.742a32.528 32.528 0 0 0 5.286-2.81c1.65-1.1 3.238-2.382 4.644-3.788s2.688-2.964 3.788-4.644a30.154 30.154 0 0 0 2.81-5.286 30.94 30.94 0 0 0 2.352-11.67c0-8.034-3.268-15.916-8.952-21.598a30.664 30.664 0 0 0-9.93-6.598 28.766 28.766 0 0 0-5.712-1.742 30.254 30.254 0 0 0-11.946 0c-1.956 0.366-3.88 0.978-5.712 1.742-1.834 0.764-3.604 1.68-5.254 2.81-1.68 1.1-3.238 2.382-4.644 3.788a29.434 29.434 0 0 0-3.818 4.644 30.154 30.154 0 0 0-2.81 5.286 30.008 30.008 0 0 0-2.322 11.67c0 1.986 0.184 4.002 0.58 5.958 0.398 1.95 0.978 3.878 1.742 5.708zM656.83 415.442c16.872 0 30.55-13.678 30.55-30.55s-13.678-30.55-30.55-30.55H282.702c-16.872 0-30.55 13.678-30.55 30.55s13.678 30.55 30.55 30.55h374.128zM713.082 396.582a30.964 30.964 0 0 0 6.598 9.898 34.576 34.576 0 0 0 4.644 3.818c1.68 1.1 3.452 2.046 5.286 2.81 1.832 0.764 3.758 1.344 5.712 1.742 1.986 0.398 3.972 0.58 5.988 0.58 1.986 0 3.972-0.184 5.958-0.58 1.956-0.398 3.88-0.978 5.712-1.742a32.528 32.528 0 0 0 5.286-2.81c1.65-1.13 3.238-2.414 4.644-3.818s2.688-2.964 3.788-4.644a31.04 31.04 0 0 0 2.81-5.254c0.764-1.864 1.344-3.788 1.742-5.712 0.398-1.986 0.61-4.002 0.61-5.988a30.848 30.848 0 0 0-2.352-11.67 30.154 30.154 0 0 0-2.81-5.286 29.254 29.254 0 0 0-3.788-4.644 30.664 30.664 0 0 0-4.644-3.788 32.446 32.446 0 0 0-5.286-2.81 30.894 30.894 0 0 0-5.712-1.742 30.254 30.254 0 0 0-11.946 0c-1.956 0.398-3.88 0.978-5.712 1.742-1.834 0.764-3.604 1.71-5.286 2.81a32.22 32.22 0 0 0-4.644 3.788 31.002 31.002 0 0 0-3.788 4.644 30.154 30.154 0 0 0-2.81 5.286 30.008 30.008 0 0 0-2.322 11.67c0 1.986 0.184 4.002 0.58 5.988 0.398 1.924 0.978 3.85 1.742 5.712z" fill="" p-id="9777"></path></svg>